# xmcd
#
# Track frame offsets:
# 150
# 17800
# 36645
# 60105
# 105234
# 129575
# 154278
# 174134
# 192938
# 215920
# 237474
# 257771
#
# Disc length: 3681 seconds
#
#
# Revision: 0
# Processed by: cddbd v1.5PL3 Copyright (c) Steve Scherf et al.
# Submitted via: FreeRIP 2.51 
#
DISCID=a30e5f0c
DTITLE=big chico - blues is my life
DYEAR=2003
DGENRE=blues
TTITLE0=big chico and jumpin
TTITLE1=i cry for you
TTITLE2=girls and money
TTITLE3=blues is my life
TTITLE4=from george smith to william clarke
TTITLE5=about to lose your clown
TTITLE6=i got to go
TTITLE7=big fat and hot
TTITLE8=across my heart
TTITLE9=t-bone shuffle
TTITLE10=up the line
TTITLE11=the son of hucklebuck
EXTD=
EXTT0=
EXTT1=
EXTT2=
EXTT3=
EXTT4=
EXTT5=
EXTT6=
EXTT7=
EXTT8=
EXTT9=
EXTT10=
EXTT11=
PLAYORDER=
